<?xml version="1.0" encoding="UTF-8"?>
<!DOCTYPE svg PUBLIC "-//W3C//DTD SVG 1.1//EN" "http://www.w3.org/Graphics/SVG/1.1/DTD/svg11.dtd">
<!-- Creator: CorelDRAW 2021 (64 Bit) -->
<svg xmlns="http://www.w3.org/2000/svg" xml:space="preserve" width="1920px" height="1000px" version="1.1" shape-rendering="geometricPrecision" text-rendering="geometricPrecision" image-rendering="optimizeQuality" fill-rule="evenodd" clip-rule="evenodd"
viewBox="0 0 1920 1000"
 xmlns:xlink="http://www.w3.org/1999/xlink"
 xmlns:xodm="http://www.corel.com/coreldraw/odm/2003">
 <defs>
   <clipPath id="id0">
    <path d="M0 0l1920 0 0 1000 -1920 0 0 -1000z"/>
   </clipPath>
 </defs>
 <g id="Camada_x0020_1">
  <metadata id="CorelCorpID_0Corel-Layer"/>
  <polygon fill="#2E2E2E" points="0,0 1920,0 1920,1000 0,1000 "/>
  <g clip-path="url(#id0)">
   <g id="_2594758765360">
    <path id="_1" fill="#0045A6" d="M65 1343l1351 0 1351 0 0 -726c-198,-196 -436,-216 -692,0 -209,176 -418,220 -659,0 -198,-196 -436,-216 -692,0 -209,176 -418,220 -659,0l0 726z"/>
    <path fill="#4E8FD9" d="M-639 1343l1351 0 1351 0 0 -726c-198,-196 -436,-216 -692,0 -209,176 -418,220 -659,0 -198,-196 -436,-216 -692,0 -209,176 -418,220 -659,0l0 726z"/>
    <path fill="none" stroke="#1A1A1A" stroke-width="10" stroke-linecap="round" stroke-linejoin="round" stroke-miterlimit="22.9256" d="M-263 1435l1351 0 1351 0 0 -726c-198,-196 -436,-216 -692,0 -209,176 -418,220 -659,0 -198,-196 -436,-216 -692,0 -209,176 -418,220 -659,0l0 726z"/>
   </g>
  </g>
  <polygon fill="none" points="0,0 1920,0 1920,1000 0,1000 "/>
 </g>
</svg>
